<svg width="39" height="28" viewBox="0 0 39 28" fill="none" xmlns="http://www.w3.org/2000/svg">
<path d="M31.3967 20.766C33.3662 21.8445 34.4912 23.766 34.3502 25.6875C34.2557 26.859 34.2092 26.907 32.7092 27.0945C31.7717 27.2355 25.8647 27.282 19.7717 27.282C12.8807 27.282 5.66274 27.141 5.14674 27C3.08424 26.484 4.20924 22.734 6.92874 20.9535C9.03774 19.5945 13.3502 17.532 14.5232 17.2965C16.1177 16.968 16.3052 15.984 14.5232 12.7965C14.1017 12.093 13.6322 9.9375 13.5857 7.6875C13.5392 4.0305 14.2427 1.5465 17.4302 0.3285C18.0872 0.0944998 18.7427 0 19.3517 0C21.4607 0 23.4302 1.1715 24.2267 2.907C25.3982 5.2035 24.9302 11.3445 23.7107 13.548C22.3037 16.032 22.4447 16.83 23.9927 17.2515C25.0247 17.5335 28.2122 19.0335 31.3997 20.7675L31.3967 20.766ZM5.89674 19.3605C5.14674 19.8765 4.44324 20.532 3.88074 21.189C2.09874 21.189 0.739744 21.1425 0.598744 21.0945C-0.572756 20.8125 0.0827444 18.657 1.63074 17.7195C2.80224 16.9695 5.19324 15.798 5.85024 15.657C6.69474 15.4695 6.88224 14.9535 5.85024 13.173C5.61624 12.798 5.33424 11.5785 5.33424 10.314C5.28774 8.2515 5.70924 6.8445 7.49124 6.2355C8.99124 5.673 10.6787 6.3765 11.2877 7.6425C11.8967 8.955 11.5697 12.33 10.9127 13.5495C10.1627 15.003 10.3037 15.378 11.1467 15.612C11.3342 15.6585 11.7092 15.846 12.2252 16.0815C10.1627 16.926 7.35024 18.4725 5.89674 19.3635V19.3605ZM36.7412 17.5785C37.8662 18.1875 38.4752 19.2195 38.3822 20.298C38.3357 20.955 38.3357 21.0015 37.4912 21.0945C37.2572 21.141 36.1787 21.189 34.7717 21.189C34.1627 20.3925 33.3182 19.6425 32.2877 19.1265C30.3662 18.0015 28.0217 16.782 26.2877 16.032C26.7572 15.8445 27.1787 15.7035 27.3662 15.657C28.2572 15.4695 28.3982 14.9535 27.3662 13.173C27.1787 12.798 26.8502 11.5785 26.8502 10.314C26.8037 8.2515 27.1787 6.8445 28.9592 6.2355C30.5057 5.673 32.1932 6.3765 32.7557 7.6425C33.3647 8.955 33.1307 12.33 32.4737 13.5495C31.7237 15.003 31.8167 15.378 32.6147 15.612C33.1772 15.7995 34.9592 16.644 36.7397 17.5815L36.7412 17.5785Z" fill="black"/>
</svg>
