<svg width="40" height="40" viewBox="0 0 40 40" fill="none" xmlns="http://www.w3.org/2000/svg">
<g clip-path="url(#clip0_478_854)">
<path d="M16.535 28.9294C16.535 28.927 16.5341 28.9253 16.5333 28.9229C16.5676 28.9417 16.5872 28.9506 16.535 28.9294ZM16.4746 28.8698C16.4207 28.86 16.4901 28.8976 16.535 28.9221C16.5219 28.8951 16.5023 28.8747 16.4746 28.8698ZM21.0012 18.2737C21.0012 18.2737 21.0102 18.2835 21.0216 18.2949C21.033 18.2737 21.0012 18.2737 21.0012 18.2737ZM27.2527 27.8592C27.3964 27.8788 27.5874 27.8641 27.7238 27.8592H27.767C27.905 27.8592 28.0242 27.802 28.2413 27.682L28.2585 27.6731C28.0789 27.651 27.9017 27.6273 27.7238 27.6061C27.5483 27.5833 27.3719 27.5571 27.1964 27.5326C27.3205 27.629 27.4054 27.7098 27.3703 27.722C27.274 27.7629 27.096 27.842 27.2527 27.8592ZM26.3776 19.0223L26.3466 19.0068C26.2797 19.2925 26.2094 19.5749 26.1409 19.8566C26.189 19.886 26.1548 19.8958 26.3539 19.9047C26.6397 19.9186 26.4413 19.9186 26.6503 19.9186C26.8617 19.9186 26.8993 19.9415 26.9368 19.8549C26.9735 19.7676 26.9874 19.9056 26.9874 19.668C26.9874 19.4304 26.8772 19.3325 26.8005 19.2704C26.7246 19.21 26.6013 19.1219 26.3776 19.0223ZM25.1425 23.5505L25.0788 23.7636L25.1751 23.7464C25.1751 23.7464 25.1988 23.8126 25.2372 23.9073C25.2568 23.8558 25.2755 23.8158 25.2755 23.8158C25.2755 23.8158 25.2755 23.7481 25.2413 23.6126C25.2347 23.5905 25.1906 23.5685 25.1425 23.5505ZM25.7686 21.415H25.7392L25.7115 21.5276C25.5882 21.988 25.4568 22.4534 25.3237 22.9211C25.4298 22.926 25.5286 22.9342 25.5286 22.9342C25.5286 22.9342 25.6478 22.8836 25.6821 22.7309C25.7156 22.5774 25.8013 22.4076 25.8013 22.4076C25.8013 22.4076 25.8307 22.4142 25.887 22.4248C25.9213 22.3636 25.9588 22.2738 25.9588 22.1701C25.9588 21.957 25.8641 21.9113 25.8641 21.7954C25.8641 21.6762 25.9123 21.3954 25.9123 21.3954L25.7686 21.415ZM28.7997 27.7375C28.7058 27.9816 28.6021 28.2371 28.5377 28.3359C28.3997 28.5523 28.0242 29.0282 27.8258 29.2045C27.8046 29.2257 27.767 29.2559 27.7238 29.2902C27.4242 29.5343 26.7352 30.0519 26.5793 30.1735C26.4021 30.3115 25.5727 31.0225 25.4739 31.1033C25.3735 31.1817 25.216 31.438 25.216 31.438L25.078 31.6372L25.1384 31.7948C25.1384 31.7948 25.0192 31.9319 24.98 32.0723C24.9751 32.0919 24.9629 32.1131 24.9482 32.1336C23.86 32.5793 22.7367 32.8691 21.6102 33.0079C21.3914 33.4634 21.1693 33.9099 20.9408 34.3507C23.0763 34.2136 25.216 33.5956 27.1956 32.4536C29.1752 31.3107 30.781 29.767 31.9687 27.9857C31.4887 27.9653 31.0046 27.9343 30.5206 27.8976C29.9467 27.8551 29.3728 27.802 28.7997 27.7375ZM39.9526 25.344C39.3158 27.7212 32.3932 28.0061 23.6086 26.251C20.735 34.7361 17.0289 40.5876 14.6525 39.9509C13.1553 39.5517 12.4883 36.6479 12.6402 32.3581C12.6908 32.3858 12.7422 32.4144 12.7928 32.443C10.6818 31.2241 8.84909 29.4543 7.54213 27.189C6.39924 25.2093 5.78209 23.0689 5.64494 20.9325C6.0621 21.1505 6.48741 21.3603 6.91844 21.5676C8.45725 22.3056 10.0712 22.9742 11.7071 23.5783H11.7038L11.7079 23.6664L11.4704 24.082L11.2516 24.2216L11.3112 24.3203L11.3512 24.5195H11.2328C11.2328 24.5195 11.2328 24.7963 11.2328 24.9522C11.2328 25.1106 11.5504 25.1718 11.5504 25.1718L11.4508 25.2322C11.4508 25.2322 11.4712 25.3326 11.57 25.4869C11.6687 25.6444 11.7479 25.7849 11.7887 25.9228C11.8271 26.0608 11.8867 26.4567 11.8867 26.4567C11.8867 26.4567 12.1439 26.891 12.2622 27.0698C12.3814 27.2477 12.6181 27.4861 12.7177 27.6837C12.8165 27.8812 13.0345 27.7833 13.4492 27.8812C13.8639 27.9792 14.0427 28.118 14.0427 28.118C14.0427 28.118 14.2606 28.2984 14.3986 28.3751C14.5366 28.4559 14.6753 28.4559 15.0517 28.4559C15.4092 28.4559 15.1758 28.4731 15.6158 28.5416L15.6843 28.5523C16.2117 28.6314 15.7937 28.5947 16.2966 28.82L16.3162 28.8298C16.4378 28.8845 16.5039 28.9147 16.5382 28.9286C16.5766 29.0192 16.5595 29.1915 16.5733 29.2633C16.5929 29.3637 16.7317 29.2461 16.8305 29.2461C16.9064 29.2461 16.9244 29.3033 17.0109 29.358C17.0362 29.3751 17.0672 29.389 17.1072 29.4021C17.286 29.4617 17.3244 29.3425 17.3244 29.3425L17.5227 29.5809L17.6811 29.7996L17.5227 30.1735L17.3848 30.3123C17.3848 30.3123 17.4044 30.1343 17.3848 29.9964C17.3644 29.8568 17.2468 30.0551 17.2468 30.0551L17.1276 30.4315L17.5627 30.8478L17.695 30.9662L17.9807 31.2233L17.9979 31.2739L18.1579 31.736L18.1383 31.8944L18.237 32.1507C18.237 32.1507 18.1113 32.2021 17.9979 32.2315C17.9546 32.2429 17.9138 32.2495 17.8819 32.2495C17.8248 32.2495 17.7538 32.3164 17.6958 32.3891C17.6329 32.4666 17.5848 32.5466 17.5848 32.5466C17.5848 32.5466 17.6305 32.634 17.6958 32.7262C17.7383 32.7842 17.7889 32.8438 17.8419 32.8813C17.8689 32.9001 17.8942 32.9164 17.9195 32.9328C17.9407 32.936 17.9619 32.9409 17.9823 32.945C17.9791 32.9523 17.9742 32.9613 17.9693 32.967L17.9105 33.0675C17.7407 33.363 17.5227 33.7295 17.2738 34.1148C15.8256 33.8332 14.4239 33.3311 13.1218 32.6242C13.1235 32.6258 13.1259 32.6266 13.1275 32.6299C13.1667 35.2226 13.6516 36.901 14.5994 37.1557C16.4003 37.6382 19.3138 32.8487 21.7228 25.8453C20.713 25.6167 19.682 25.3628 18.6411 25.082C7.61804 22.1358 -0.70539 17.4622 0.0472781 14.6532C0.448103 13.1552 3.34775 12.4891 7.63927 12.6409C7.58947 12.7258 7.54213 12.8107 7.49396 12.8956C8.71521 10.7396 10.5063 8.87022 12.8084 7.54285C15.099 6.21956 17.6027 5.60322 20.0697 5.61954C19.9824 5.61954 19.8942 5.61709 19.8069 5.61791C21.82 1.826 23.8494 -0.352824 25.3466 0.0488167C28.1564 0.801485 28.0413 10.347 25.0894 21.3668C24.8086 22.4076 24.5139 23.4273 24.207 24.4175C31.4765 25.833 37.0823 25.7065 37.5648 23.9064C37.8187 22.9595 36.6056 21.6982 34.3786 20.3676C34.3786 20.3611 34.3786 20.3545 34.3786 20.348C34.3402 21.8329 34.0765 23.3032 33.5933 24.7016C33.1345 24.7236 32.7108 24.7277 32.3696 24.7277C32.0912 24.7277 31.8732 24.7236 31.7443 24.7187C31.3736 24.7032 30.9973 24.6844 30.6226 24.6591C30.6887 24.4273 30.7459 24.2558 30.7606 24.1611C30.7777 24.042 30.8455 23.8542 30.8455 23.8542L30.4046 23.753L30.354 23.464L30.1663 23.433L29.9973 23.7546C29.9973 23.7546 29.8601 23.9579 29.7083 24.0428C29.5548 24.1277 29.3516 24.1448 29.3516 24.1448L29.4022 23.9064C29.3173 23.8738 29.1475 23.9391 29.1475 23.9391L29.1303 23.7195C29.1303 23.7195 29.0275 23.4991 28.9434 23.4803C28.8585 23.4632 28.7222 23.2762 28.7222 23.2762C28.7222 23.2762 28.6715 23.2101 28.6193 23.073C28.6185 23.0689 28.6128 23.064 28.6046 23.0575L28.6299 22.9432C28.6299 22.9432 28.7875 22.7628 28.9213 22.6068C29.0569 22.4493 29.1026 22.7628 29.2373 22.877C29.372 22.9881 29.3271 23.1693 29.3271 23.1693C29.3271 23.1693 29.4169 23.2142 29.5287 23.2142C29.6422 23.2142 29.6871 23.3032 29.6871 23.3032L29.9107 23.393L30.1377 23.1432C30.1377 23.1432 30.181 22.9864 30.3369 22.9864C30.4952 22.9864 30.3589 23.1897 30.3589 23.3032C30.3589 23.415 30.4724 23.3032 30.7875 23.1685C31.101 23.0338 30.9671 23.0558 31.2585 22.8974C31.5508 22.7407 31.394 22.7856 31.5067 22.6958C31.621 22.6068 31.7092 22.5154 31.7092 22.5154L31.9557 22.6713L32.2259 22.6256L32.4969 22.4697V22.6713C32.4969 22.6713 32.3149 22.8958 32.4283 23.0558C32.5435 23.2117 32.5647 23.1685 32.4969 23.3717C32.4283 23.5734 32.4765 23.5734 32.4969 23.6869C32.5141 23.7734 32.5173 23.7815 32.519 23.8322C33.5443 20.477 33.2333 16.7234 31.341 13.4483C30.4365 11.8776 29.2511 10.5641 27.8887 9.53636C27.9278 9.03267 27.9556 8.53471 27.976 8.03837C29.7597 9.22615 31.3002 10.8303 32.4447 12.8107C33.7557 15.0834 34.3729 17.5651 34.368 20.0141C34.368 19.9456 34.3704 19.877 34.3696 19.8092C38.1754 21.8191 40.355 23.8477 39.9526 25.344ZM22.7163 9.70534C22.7163 9.70534 22.8575 9.62371 22.9277 9.59432C22.9971 9.56411 22.9277 9.5535 22.8575 9.5037C22.7898 9.45309 22.6975 9.54452 22.6975 9.54452C22.6975 9.54452 22.6575 9.58452 22.6167 9.67677C22.6126 9.68493 22.6069 9.69146 22.6028 9.69555C22.5661 9.74289 22.522 9.62044 22.5147 9.55513C22.5032 9.48656 22.2412 9.53473 22.251 9.53473C22.2624 9.53473 22.3139 9.66616 22.3139 9.66616C22.3139 9.66616 22.3326 9.78616 22.3326 9.8384C22.3326 9.88902 22.3326 9.97963 22.3743 10.0392C22.4143 10.098 22.5277 10.1927 22.5277 10.1927L22.6061 10.1413L22.6371 10.1209L22.7579 9.91922L22.8584 9.82861L22.7163 9.70534ZM21.0991 8.80818C21.0991 8.80818 21.1163 8.66614 21.1938 8.68165C21.2738 8.69879 21.3514 8.49062 21.3514 8.49062C21.3514 8.49062 21.2885 8.36409 21.2102 8.36409C21.1293 8.36409 20.9546 8.38042 20.9546 8.38042L20.9073 8.2849C20.9073 8.2849 20.8126 8.26939 20.6861 8.31674C20.5587 8.36409 20.5277 8.25307 20.5277 8.25307L20.5114 8.06204L20.3359 8.10939L20.2093 7.99918C20.2093 7.99918 20.1612 7.90285 20.2403 7.90285C20.3203 7.90285 20.4322 7.92 20.4322 7.92L20.5889 7.80898L20.5269 7.68326L20.6371 7.55591C20.6371 7.55591 20.4159 7.44489 20.3669 7.52489C20.3195 7.60326 20.1456 7.66693 20.1456 7.66693C20.1456 7.66693 20.1612 7.61958 20.0656 7.49223C19.9701 7.36489 20.1122 7.30121 19.9065 7.35019C19.7848 7.37713 19.6869 7.43836 19.624 7.48407C19.5807 7.51591 19.5562 7.5404 19.5562 7.5404C19.5562 7.5404 19.335 7.58775 19.3187 7.66775C19.3015 7.74775 19.5881 7.7951 19.5881 7.7951C19.5881 7.7951 19.6028 7.77632 19.624 7.75265C19.6673 7.70693 19.7416 7.64571 19.7954 7.69877C19.8746 7.77795 19.9375 7.87428 19.9375 7.87428L19.6354 8.03265L19.624 8.02204L19.4771 7.90449H19.175L19.0322 7.96898L18.7464 8C18.7464 8 18.7938 8.14286 18.7938 8.22204C18.7938 8.30123 18.6664 8.3796 18.6664 8.3796L18.4966 8.36491L18.4754 8.36409L18.3015 8.49062C18.3015 8.49062 18.1105 8.50776 18.0313 8.57062C18.0174 8.58124 18.0044 8.58777 17.9889 8.59185C17.917 8.61062 17.8403 8.56083 17.8403 8.66614C17.8403 8.79349 17.8566 8.85634 17.7603 8.87267C17.7407 8.87594 17.7154 8.88083 17.6876 8.88655C17.5872 8.90696 17.4599 8.93553 17.4599 8.93553C17.4599 8.93553 17.3644 8.98288 17.2852 9.06369C17.206 9.14206 17.0305 9.18941 17.0305 9.18941L17.0052 9.18451L16.7129 9.12574L16.2999 9.30125L16.2892 9.32574L16.2043 9.52411L15.9333 9.55595C15.9333 9.55595 15.7121 9.66697 15.6958 9.74861C15.6876 9.78861 15.646 9.82453 15.6068 9.85147C15.5709 9.87514 15.5374 9.89065 15.5374 9.89065C15.5374 9.89065 15.379 9.95514 15.299 10.0188C15.219 10.0825 15.1235 10.2098 15.1235 10.2098L15.0606 10.3511L15.1717 10.5103L14.917 10.5421L14.9488 10.6678C15.0753 10.7935 15.1562 10.858 15.2345 10.7935C15.3145 10.7299 15.2672 10.6841 15.3627 10.6515C15.419 10.6327 15.5178 10.5984 15.6076 10.5666C15.6705 10.5445 15.7268 10.5225 15.7603 10.5094C15.8411 10.4776 15.9676 10.3674 16.0623 10.3674C16.157 10.3674 16.2533 10.3494 16.2533 10.3494L16.2901 10.32L16.5064 10.1437L16.7611 10.2547L16.9668 10.2213C16.9668 10.2213 16.9668 10.2735 17.006 10.3135C17.0199 10.329 17.0378 10.3396 17.0631 10.3478C17.1578 10.3796 17.3015 10.3796 17.3015 10.3796C17.3015 10.3796 17.3807 10.2694 17.4925 10.2694H17.6893H17.7774L17.8093 10.1266L17.9905 10.2107L18.0166 10.2221L18.1587 10.3339C18.1587 10.3339 18.0942 10.3486 18.2542 10.4131C18.3497 10.4523 18.4411 10.436 18.4966 10.4205C18.5334 10.4098 18.5554 10.3976 18.5554 10.3976L18.8256 10.4629C18.8256 10.4629 18.8411 10.2098 18.7619 10.2098C18.6811 10.2098 18.5236 10.1298 18.5236 10.1298L18.6991 10.0662L18.8893 10.0343L18.9366 10.2409L19.2379 10.1454L19.1905 9.97147L19.2069 9.69963L19.4934 9.74861L19.5105 9.938C19.5105 9.938 19.566 9.96086 19.6256 9.97718C19.6926 9.99433 19.7636 9.99759 19.7636 9.938C19.7636 9.82698 19.6999 9.74861 19.7799 9.74861C19.8599 9.74861 20.0183 9.69963 20.0183 9.69963L20.0975 9.58942L20.2093 9.33472L20.3367 9.52493L20.5122 9.41554L20.4803 9.25717L20.8624 9.08247C20.8624 9.08247 21.0836 9.05145 21.18 9.05145C21.2755 9.05145 21.3073 9.01961 21.3073 9.01961C21.3073 9.01961 21.3702 8.89145 21.2755 8.89145C21.1783 8.88818 21.0991 8.80818 21.0991 8.80818ZM17.3031 14.9512L17.1448 15.0303L17.5105 15.205L17.6909 15.2148L17.8281 15.2214C17.8281 15.2214 17.9236 15.063 17.9391 14.9038C17.9464 14.8312 17.9627 14.7977 17.9921 14.7748C18.0256 14.7479 18.077 14.7324 18.1456 14.681C18.2721 14.5846 18.2403 14.5544 18.2093 14.4597C18.1856 14.3895 18.0583 14.3952 17.993 14.405C17.9709 14.4083 17.9546 14.4124 17.9546 14.4124L17.6909 14.5446L17.6689 14.5561L17.5415 14.3977L17.366 14.445L17.1921 14.6189C17.1758 14.6034 17.3031 14.6369 17.3031 14.6369C17.3031 14.6369 17.3505 14.6189 17.4787 14.6369C17.606 14.6532 17.4468 14.7626 17.4468 14.7626L17.1921 14.8271L17.3031 14.9512ZM17.9089 11.2368L17.6925 11.2539H17.6868C17.6868 11.2539 17.6444 11.4801 17.6925 11.6131C17.6958 11.6205 17.6991 11.6286 17.7023 11.6352C17.748 11.7258 17.8411 11.8156 17.993 11.8376C18.0558 11.8458 18.1276 11.8433 18.2101 11.8254C18.3521 11.7935 18.397 11.7854 18.4044 11.7854L18.3848 11.7935C18.3848 11.7935 18.4134 11.7846 18.4044 11.7854L18.5007 11.747L18.6232 11.698C18.6232 11.698 18.8289 11.5707 18.8289 11.4588C18.8289 11.3495 18.6534 11.3805 18.5105 11.3805H18.4999C18.3677 11.3797 18.3815 11.3593 18.3203 11.2066C18.2566 11.0474 18.2566 11.3005 18.2566 11.3005C18.2566 11.3005 18.193 11.285 18.1285 11.1421C18.0648 11.0001 18.0493 10.8882 18.0493 10.8882L17.993 10.9176L17.8125 11.0139L17.8599 11.1095L17.9089 11.2368ZM17.7505 15.7944C17.7505 15.7944 17.8142 15.8736 17.9089 16.001C17.9513 16.0565 17.9758 16.0393 17.9946 16.001C18.0199 15.9528 18.0387 15.8728 18.0827 15.8728C18.1628 15.8728 18.0991 16.001 18.1938 15.9822C18.2885 15.9667 18.4958 15.9667 18.4958 15.9667L18.5007 15.9716L18.6379 16.1251C18.6379 16.1251 18.7962 16.0459 18.8134 15.9675C18.8305 15.8875 18.8297 15.8875 18.9562 15.8875C19.0828 15.8875 19.0354 15.872 19.1946 15.7455C19.3538 15.6173 19.1473 15.5063 19.0199 15.4434C18.8934 15.3797 19.0044 15.2695 19.0044 15.2695L19.0199 15.0467C19.0199 15.0467 19.0199 14.9675 19.0044 14.8565C18.9881 14.7454 18.9571 14.6646 18.9407 14.5544C18.9236 14.4434 18.8126 14.4761 18.8126 14.4761V14.3324C18.8126 14.3324 19.0509 14.3324 19.1301 14.3005C19.2093 14.2687 19.1301 14.1095 19.1301 14.1095C19.1301 14.1095 18.9407 14.0303 18.7962 13.983C18.6542 13.9356 18.7489 13.9038 18.9873 13.8883C19.2248 13.8711 19.0191 13.7618 19.0191 13.7618L18.8297 13.6507C18.8297 13.6507 18.7342 13.7789 18.575 13.8418C18.5407 13.8564 18.517 13.8703 18.5015 13.8875C18.4452 13.9405 18.4828 14.0042 18.433 14.0801V14.2075L18.5015 14.3258L18.544 14.3969C18.544 14.3969 18.5301 14.463 18.5015 14.5324C18.4877 14.5675 18.4697 14.6034 18.4485 14.6369C18.3848 14.7316 18.4803 14.8418 18.4803 14.8418C18.4803 14.8418 18.4803 15.0475 18.4485 15.161C18.4166 15.2704 18.1783 15.0646 18.1783 15.0646L18.1309 15.3348H17.9946H17.9089L17.9415 15.4777L17.9946 15.5202L18.0827 15.5887L18.1774 15.7324L17.993 15.6655L17.9081 15.6353L17.7505 15.7944ZM15.2558 8.63348L14.9855 8.9192C14.9855 8.9192 15.2239 8.96655 15.3031 8.95022C15.3496 8.94043 15.4778 8.85471 15.6109 8.76328C15.7056 8.69716 15.8019 8.63103 15.8737 8.5845C16.0492 8.47511 16.1121 8.50532 16.1121 8.50532L16.1758 8.63185L15.7954 8.85308L16.2394 8.7894L16.2917 8.73961L16.4607 8.58287L16.6362 8.37715L16.9056 8.39348L17.0076 8.35429L17.2387 8.26694C17.2387 8.26694 17.4289 8.14041 17.508 7.99755C17.5701 7.88653 17.6117 7.94857 17.6885 7.96571C17.7105 7.97061 17.7342 7.97224 17.7611 7.96571C17.8876 7.93388 17.8256 7.82285 17.8256 7.71183C17.8256 7.65714 17.9023 7.65305 17.9905 7.65387C18.0836 7.65469 18.1905 7.66448 18.2387 7.63183C18.3334 7.56815 18.1595 7.44162 18.0321 7.4106L17.9897 7.4008C17.8901 7.37876 17.8387 7.36652 17.8248 7.26774C17.8166 7.20978 17.757 7.191 17.6876 7.19509C17.624 7.19917 17.5521 7.22121 17.5072 7.25305C17.4117 7.31672 17.2215 7.33223 17.286 7.2057C17.2958 7.18529 17.308 7.17794 17.3203 7.1657C16.8264 7.26937 16.3341 7.40162 15.8484 7.56407C15.9578 7.56162 16.0043 7.5706 16.0786 7.5706C16.1733 7.5706 15.9831 7.68163 15.9831 7.68163C15.9831 7.68163 15.6966 7.77632 15.6182 7.83836L15.6084 7.84734C15.5407 7.91265 15.5709 8.01388 15.5709 8.01388C15.5709 8.01388 15.5864 8.01388 15.6084 8.01388C15.6598 8.01306 15.7529 8.0098 15.8076 7.99755C15.8868 7.98041 15.9505 7.9502 16.157 7.82204C16.2223 7.78204 16.2623 7.75999 16.2892 7.74938C16.3497 7.72326 16.3505 7.73877 16.4264 7.6955C16.5374 7.63101 16.4582 7.87102 16.4582 7.87102L16.7603 7.75999L17.0052 7.74775L17.0925 7.74367L17.188 7.56815L17.0044 7.52734L16.9023 7.5053L16.9978 7.40978H17.0044C17.0484 7.40978 17.3219 7.4106 17.4109 7.42611C17.5064 7.44244 17.4109 7.55428 17.4109 7.55428L17.3799 7.68244L17.2689 7.88653C17.2689 7.88653 17.1252 7.90367 17.0142 7.90367H17.0052C16.895 7.91102 16.7758 8.02939 16.7758 8.02939L16.5529 8.18776H16.2892H16.237L16.1896 8.36327L15.935 8.33144C15.935 8.33144 15.9031 8.25143 15.8876 8.14041C15.8713 8.02939 15.7594 8.14041 15.7594 8.14041C15.7594 8.14041 15.7154 8.32899 15.6076 8.4098C15.5864 8.42695 15.5627 8.43593 15.5382 8.44246C15.3831 8.47511 15.2558 8.63348 15.2558 8.63348ZM18.713 6.95345C18.5775 6.96733 18.4428 6.97631 18.3072 6.9959C18.3252 6.99998 18.3383 7.00733 18.3823 7.01631C18.4779 7.03263 18.3987 7.06365 18.3987 7.14202C18.3987 7.19509 18.4199 7.21141 18.4991 7.22774C18.5391 7.23509 18.5938 7.24407 18.6689 7.25305C18.8909 7.28407 18.7489 7.18937 18.717 6.99916C18.7154 6.97957 18.713 6.96488 18.713 6.95345ZM17.8232 7.071C17.8574 7.09712 17.8607 7.14039 17.8607 7.14039C17.8607 7.14039 17.8754 7.1061 17.8917 7.05794C17.8672 7.06284 17.8444 7.06692 17.8232 7.071ZM19.682 6.89304C19.6648 6.92814 19.6501 6.97059 19.655 7.01467C19.6714 7.15835 19.7032 7.01467 19.7979 6.98284C19.8558 6.96243 19.8673 6.94039 19.8828 6.88814C19.815 6.88732 19.7489 6.89141 19.682 6.89304ZM10.3732 11.0972L10.5732 11.1103L10.8271 10.9535L11.081 11.0327L10.9389 11.0964C10.9389 11.0964 10.7953 11.3021 10.7642 11.3984C10.7324 11.4931 11.1446 11.4776 11.1446 11.4776C11.1446 11.4776 11.2557 11.1764 11.2557 11.0499C11.2557 10.9233 11.5896 10.8433 11.5896 10.8433L11.6843 10.5911L11.8426 10.7005C11.8426 10.7005 11.9389 10.5249 11.9234 10.4458C11.9071 10.3666 11.6214 10.3494 11.6214 10.3494L11.9079 10.2082L12.1945 10.2874L12.1308 10.8425H12.4165L12.481 10.938C12.481 10.938 12.0843 11.1609 12.0034 11.1609C11.9251 11.1609 11.7496 11.365 11.7496 11.365L11.5912 11.5405C11.5912 11.5405 11.654 11.636 11.7806 11.667C11.9087 11.6989 11.9087 11.778 11.9087 11.778C11.9087 11.778 12.0826 11.7127 12.0826 11.6197C12.0826 11.5242 12.019 11.4915 12.019 11.4915C12.019 11.4915 12.1618 11.3348 12.2573 11.2221C12.352 11.1111 12.8614 10.889 12.9561 10.778C13.0508 10.667 12.988 10.587 12.988 10.587L13.2263 10.4433C13.2263 10.4433 13.29 10.1421 13.321 10.0637C13.3529 9.98453 13.6867 9.82453 13.9251 9.64983C14.1635 9.47513 14.1945 9.45881 14.5112 9.38044C14.8296 9.29962 14.6068 9.26941 14.5921 9.1739C14.5749 9.07839 14.3219 9.30043 14.3219 9.30043L13.9406 9.19186C13.9406 9.19186 14.099 9.19186 14.2582 9.06533C14.4166 8.93798 14.3863 9.03349 14.4966 8.98614C14.6068 8.9388 14.5757 8.89145 14.5757 8.89145H14.7513C14.7513 8.89145 14.8941 8.74859 14.9725 8.62205C15.0517 8.4947 15.2264 8.25715 15.2264 8.25715C15.2264 8.25715 14.8304 8.48001 14.7504 8.51103C14.6713 8.54205 14.5439 8.48001 14.4492 8.48001C14.3537 8.48001 14.2108 8.63675 14.0525 8.70124C13.8941 8.76491 13.7194 8.85798 13.7194 8.85798L13.481 8.81063L13.29 8.89063L12.8304 9.08165C12.8304 9.08165 12.9096 9.01798 13.1006 8.90696C13.2908 8.79675 13.4818 8.68491 13.4818 8.68491L13.7839 8.60573L13.8116 8.45225C13.69 8.51756 13.5676 8.5796 13.4476 8.64981C12.2728 9.32166 11.2467 10.1535 10.3732 11.0972ZM22.322 24.0183C22.6404 23.0019 22.949 21.9505 23.2396 20.8664C25.8078 11.2776 26.1066 3.02602 23.9041 2.43499C22.9555 2.18029 21.6967 3.39256 20.3661 5.61954C20.3522 5.61954 20.3391 5.61954 20.3261 5.61954C21.8192 5.65383 23.2951 5.91914 24.6992 6.40405C24.7213 6.86447 24.7253 7.28733 24.7253 7.62611C24.7253 7.90612 24.7213 8.12653 24.7147 8.2547C24.6706 9.46044 24.5612 10.6947 24.4029 11.9348C24.3408 11.9135 24.2804 11.898 24.2168 11.8931C24.047 11.8817 24.0429 11.8907 24.0461 11.8931C24.0437 11.8915 23.9008 11.7764 23.8478 11.6858C23.7963 11.5935 23.6918 11.5291 23.4951 11.4613C23.2959 11.3952 23.3106 11.5397 23.3106 11.5397C23.3106 11.5397 23.1245 11.6719 22.8894 11.6466C22.6632 11.6213 22.6037 11.876 22.6004 11.8931V11.8948L22.4314 12.0393C22.4314 12.0393 22.3383 12.1968 22.233 12.1968C22.1261 12.1968 22.0477 12.2229 22.0477 12.2229C22.0477 12.2229 21.9963 12.4189 21.9963 12.525C21.9963 12.6303 21.8902 12.6425 21.8902 12.6425C21.8902 12.6425 21.7587 12.6687 21.6689 12.7087C21.5775 12.7479 21.4845 12.8001 21.3938 12.8523C21.3008 12.9046 21.34 12.9438 21.1563 13.0507C20.9718 13.156 20.9065 13.1952 20.9065 13.1952L20.6583 13.2475L20.7889 13.3797L20.593 13.4189C20.593 13.4189 20.5783 13.5373 20.6061 13.6287C20.6322 13.7209 20.8281 13.734 20.8281 13.734C20.8281 13.734 20.6975 13.8401 20.5416 13.9054C20.3832 13.9724 20.3832 13.9969 20.3954 14.0622C20.4101 14.1275 20.5016 14.2703 20.7644 14.3381C21.0257 14.4034 20.842 14.3242 20.9612 14.2589C21.0804 14.1936 21.2093 14.1544 21.2093 14.1544C21.2093 14.1544 21.3661 14.4165 21.3661 14.534C21.3661 14.6524 21.3261 14.8744 21.3416 14.9536C21.3563 15.0328 21.4861 14.9275 21.4861 14.9275L21.3669 15.0597C21.3669 15.0597 21.3938 15.2973 21.3938 15.3618C21.3938 15.4279 21.6298 15.3879 21.6298 15.3226C21.6298 15.2573 21.7604 15.152 21.9587 15.1389C22.1555 15.125 22.1277 15.0997 22.1277 14.9414C22.1277 14.783 22.1702 14.5724 22.1702 14.5724L22.3914 14.5071C22.3914 14.5071 22.5212 14.4099 22.5996 14.3307C22.6224 14.3087 22.6412 14.2875 22.6526 14.2695C22.6804 14.2271 22.6486 14.1838 22.5996 14.1446C22.5628 14.1103 22.5122 14.0777 22.482 14.0458C22.4159 13.9805 22.3914 13.7707 22.3914 13.6393C22.3914 13.5071 22.3914 13.5601 22.4045 13.4687C22.4167 13.3846 22.5147 13.3781 22.6012 13.3585C22.611 13.3568 22.62 13.3544 22.6265 13.3503C22.7179 13.3258 22.8371 13.1658 23.0061 13.0891C23.1767 13.0099 22.9163 12.9968 22.9163 12.9968C22.9163 12.9968 22.94 12.8515 22.9686 12.734C22.9922 12.6164 23.3359 12.7723 23.3359 12.7723L23.4674 12.9299L23.3106 13.0483L23.1261 13.3242L22.8633 13.6654L23.0739 14.2156C23.0739 14.2156 23.2584 14.3071 23.3759 14.294C23.4951 14.2809 23.6265 14.2148 23.7041 14.1503C23.7376 14.1218 23.9041 14.0777 24.0894 14.0385L24.0265 14.4042C23.9718 14.4271 23.8992 14.3797 23.7498 14.3797C23.5457 14.3797 23.4902 14.4728 23.3024 14.4907C23.1155 14.5103 23.2282 14.6401 23.2282 14.7316C23.2282 14.8238 23.4886 14.9365 23.4886 14.9365L23.2837 15.0671C23.2837 15.0671 23.1906 14.8622 23.0045 14.8801C22.8175 14.8997 22.8918 15.1406 22.7824 15.2328C22.669 15.3267 22.8551 15.6067 22.8551 15.6067C22.8551 15.6067 22.7212 15.623 22.5988 15.6924C22.5849 15.7014 22.5735 15.7095 22.5579 15.7177C22.429 15.8108 22.3914 15.7373 22.3914 15.7373C22.3914 15.7373 22.3179 15.6255 22.2249 15.6255C22.1302 15.6255 22.0028 15.7757 21.9065 15.8116C21.8143 15.8475 21.4975 15.8116 21.4975 15.8116L21.2942 15.5887L21.1253 15.7561C21.1253 15.7561 20.9767 15.7193 20.8836 15.6075C20.7914 15.4957 20.8836 15.5144 20.8657 15.4214C20.8477 15.3275 20.8102 15.3275 20.8102 15.3275L20.9032 15.1781L21.144 15.0287C21.144 15.0287 21.202 14.694 21.0885 14.5454C20.9775 14.3952 20.9775 14.6932 20.9775 14.6932L20.6077 14.9381L20.6273 15.441L20.5522 15.663L20.4028 15.6263L20.3097 15.7381C20.3097 15.7381 20.2167 15.6826 20.0681 15.6263C19.9187 15.57 19.6591 15.8124 19.6591 15.8124L19.624 15.8973L19.5644 16.041L19.3603 16.0042L19.2485 16.1332C19.2485 16.1332 19.1187 16.1332 19.0264 16.1332C18.9342 16.1332 18.9881 16.3006 18.9881 16.3006C18.9881 16.3006 18.9244 16.3765 18.8509 16.4034L18.8175 16.3594C18.7089 16.3447 18.6828 16.3594 18.6142 16.4132C18.5848 16.4361 18.5391 16.4532 18.4966 16.4638C18.4436 16.4769 18.397 16.4818 18.397 16.4818L18.3023 16.2377C18.3023 16.2377 18.2346 16.1169 18.1676 16.2116C18.0999 16.3071 18.126 16.3732 18.126 16.3732L18.1538 16.5357L18.0183 16.5504L17.9889 16.5414L17.9236 16.5218L17.6868 16.3806L17.6525 16.3594C17.6525 16.3594 17.4901 16.3316 17.517 16.441C17.544 16.5496 17.6795 16.6834 17.6795 16.752C17.6795 16.7602 17.6827 16.7667 17.6868 16.7708C17.7285 16.8157 17.9236 16.8026 17.9236 16.8875C17.9236 16.9822 17.8011 17.0908 17.8011 17.0908C17.8011 17.0908 17.8958 17.1716 17.8958 17.2933C17.8958 17.4141 17.8689 17.5904 17.8411 17.672C17.815 17.7529 17.7472 17.7259 17.7195 17.8067C17.7129 17.828 17.7007 17.8516 17.6868 17.8737C17.6444 17.9422 17.5848 18.01 17.5848 18.01C17.5848 18.01 17.3823 18.0647 17.3146 18.0369C17.2468 18.01 17.1921 17.9145 17.0705 17.8876C17.0411 17.8802 17.0207 17.8802 17.0052 17.8818C16.9562 17.8892 16.9488 17.9137 16.8264 17.8312C16.6639 17.7226 16.6101 17.6818 16.5015 17.6418C16.3929 17.6018 16.339 17.5071 16.339 17.5071C16.339 17.5071 16.3194 17.4941 16.2901 17.4786C16.2403 17.4508 16.166 17.4116 16.1227 17.4116C16.055 17.4116 15.9464 17.5341 15.9464 17.5341C15.9464 17.5341 15.9733 17.6435 15.9464 17.7773C15.9203 17.912 15.9733 17.9798 15.8925 18.0345C15.8117 18.0876 15.7978 18.0484 15.7839 18.1553C15.77 18.2639 15.8378 18.2092 15.7309 18.3169C15.6337 18.4149 15.6794 18.4133 15.6092 18.4623C15.6019 18.468 15.5929 18.4737 15.5823 18.4802C15.4737 18.548 15.4321 18.5333 15.3643 18.6427C15.2966 18.7504 15.2704 18.8729 15.2704 18.9676C15.2704 19.0606 15.5684 19.4002 15.5684 19.4002C15.5684 19.4002 15.5856 19.4027 15.6092 19.4108C15.6582 19.4272 15.7309 19.459 15.7309 19.5227C15.7309 19.6166 15.6223 19.6582 15.7309 19.7243C15.8394 19.7921 15.7839 19.806 15.8525 19.8468C15.8843 19.8672 16.0884 19.9104 16.2909 19.9521C16.5121 19.997 16.7325 20.037 16.7325 20.037L16.8819 19.9276H17.0068H17.1399L17.2076 19.6974L17.4101 19.6835L17.424 19.4664C17.424 19.4664 17.3962 19.25 17.4648 19.25C17.4974 19.25 17.597 19.1937 17.6885 19.1374C17.7831 19.0786 17.8705 19.019 17.8705 19.019C17.8705 19.019 17.9219 19.0312 17.9897 19.0402C18.0934 19.0549 18.2346 19.0655 18.2754 19.0337C18.3432 18.9798 18.4926 18.7635 18.4926 18.7635C18.4926 18.7635 18.4599 18.5912 18.4958 18.5153C18.5064 18.4933 18.5219 18.4786 18.5456 18.4786C18.6542 18.4786 18.9122 18.4933 18.993 18.5725C19.0746 18.6541 19.2771 18.7635 19.3587 18.7488C19.4289 18.7374 19.5399 18.6647 19.6224 18.6108L19.6567 18.5888C19.6869 18.5684 19.766 18.5112 19.8542 18.4427C19.8575 18.4484 19.8599 18.4525 19.8599 18.4525C19.8599 18.4525 20.0485 18.4786 20.1024 18.5725C20.1563 18.668 20.184 18.8435 20.1563 18.9521C20.1301 19.0606 20.3326 19.1545 20.4003 19.2378C20.4681 19.3194 20.793 19.7521 20.9032 19.8876C21.011 20.0223 21.2273 20.2664 21.2273 20.2664L21.3375 20.5235L21.1057 20.6843C21.1057 20.6843 20.8632 20.6721 20.7791 20.6443C20.6991 20.6174 20.6306 20.6974 20.6306 20.6974C20.6306 20.6974 20.5767 20.6721 20.455 20.5627C20.3326 20.4525 20.4134 20.5774 20.264 20.6574C20.1154 20.7399 20.455 20.8582 20.535 20.9284C20.6167 20.9954 20.7253 21.1178 20.7775 21.1856C20.833 21.2517 20.9677 21.1595 20.9677 21.0509C20.9677 20.939 20.9832 20.8476 20.9832 20.8476H21.2257L21.3759 20.6721L21.4967 20.5619L21.5514 20.4117L21.4559 20.1407C21.4559 20.1407 21.6175 20.0868 21.6853 20.0868C21.7522 20.0868 21.8216 20.2892 21.8216 20.2892L21.8877 20.3162C21.8877 20.3162 21.8877 20.1537 21.8461 20.086C21.8045 20.0182 21.5898 19.8566 21.5898 19.8566C21.5898 19.8566 21.3457 19.7619 21.2771 19.7055C21.211 19.6525 21.0485 19.3676 20.9669 19.2182C20.8853 19.0688 20.9424 19.0557 20.9261 18.988C20.9122 18.9202 20.7767 18.837 20.7253 18.7439C20.6722 18.65 20.6836 18.5145 20.6836 18.5145C20.6836 18.5145 20.8053 18.4321 20.9416 18.352C20.9889 18.3243 21.0085 18.3039 21.0151 18.2933C21.0689 18.3496 21.211 18.5104 21.211 18.61C21.211 18.7308 21.2657 18.8672 21.2942 18.948C21.3195 19.0288 21.4828 19.0974 21.7 19.1374C21.9171 19.1782 21.8494 19.3284 21.8494 19.3284C21.8494 19.3284 22.051 19.5708 22.0796 19.7341C22.1057 19.8949 22.1057 19.9774 22.1187 20.1815C22.1351 20.3847 22.229 20.4117 22.2959 20.6003C22.3628 20.7896 22.3914 20.7896 22.433 20.9374C22.451 21.0043 22.4657 21.0737 22.4902 21.1415C22.3539 21.6386 22.2118 22.1407 22.0649 22.6436C21.9392 22.7587 21.8477 23.1881 21.8477 23.1881C21.8477 23.1881 21.8069 23.2109 21.7481 23.2297L21.4657 23.1628C21.322 23.0093 20.993 22.9513 20.8183 22.8321C20.6404 22.7146 20.6404 22.4574 20.5024 22.3391C20.3644 22.2199 20.2648 22.2795 20.2648 22.2795C20.2648 22.2795 19.8689 22.2003 19.7905 22.1015C19.7473 22.0468 19.6771 21.9684 19.6207 21.9023C19.5718 21.8468 19.5334 21.8044 19.5334 21.8044C19.5334 21.8044 19.5718 21.766 19.6207 21.7252C19.6795 21.6737 19.7563 21.6166 19.8093 21.606C19.9089 21.5864 19.7709 21.388 19.6526 21.1897C19.5342 20.9921 19.9693 20.9325 19.9489 20.8329C19.9301 20.7366 19.7407 20.735 19.6216 20.6794L19.6126 20.6754C19.4942 20.6158 19.2167 20.6754 19.2167 20.6754L18.8411 20.5945C18.8411 20.5945 18.7228 20.6362 18.624 20.6754C18.5881 20.6909 18.5424 20.6827 18.495 20.6599C18.4093 20.6223 18.3187 20.539 18.2664 20.437C18.2117 20.3268 18.1015 20.3488 17.9872 20.3415C17.9342 20.3382 17.8819 20.3276 17.8321 20.2974C17.7783 20.2631 17.7317 20.2525 17.686 20.2533C17.5995 20.2558 17.5203 20.3031 17.4166 20.317C17.2852 20.3333 17.1146 20.3758 17.0035 20.3905C16.9807 20.3937 16.9595 20.3962 16.9415 20.3962C16.8435 20.3962 16.7235 20.4754 16.5856 20.5537C16.4476 20.6321 16.4076 20.3358 16.4076 20.3358C16.4076 20.3358 16.3652 20.3358 16.2884 20.3203C16.2076 20.3056 16.086 20.2762 15.9325 20.2149C15.6362 20.0958 15.7741 19.9186 15.7741 19.9186C15.7741 19.9186 15.7178 19.9635 15.606 20.0607C15.5692 20.0941 15.526 20.1309 15.4762 20.1766C15.2786 20.3545 15.2207 20.4337 15.0419 20.4149C14.8639 20.397 14.7643 20.4745 14.6459 20.5341C14.5366 20.5864 14.2941 21.0092 14.2557 21.0778C11.8989 20.268 9.56829 19.3153 7.46212 18.1994C7.37069 18.1496 7.22293 18.0696 7.04007 17.9651C7.01967 17.9512 6.99599 17.9398 6.97313 17.9267C6.95354 17.9161 6.9364 17.9047 6.91599 17.8941C6.62047 17.7243 6.25638 17.5063 5.86944 17.2582C6.15271 15.7928 6.66292 14.3773 7.38294 13.0605C7.37314 13.0785 7.36171 13.094 7.35355 13.1111C4.76084 13.1503 3.08407 13.6352 2.82938 14.5838C2.23916 16.7847 9.53564 20.655 19.1236 23.2248C20.2175 23.5252 21.2795 23.7864 22.322 24.0183ZM19.4085 19.9651C19.3424 19.9904 19.3424 20.1374 19.3424 20.1374C19.3424 20.1374 19.3946 20.2035 19.4616 20.2158C19.5056 20.2256 19.5571 20.2223 19.6256 20.206C19.6583 20.1986 19.695 20.1888 19.7399 20.1766C19.8722 20.1374 19.793 20.0696 19.8191 19.9782C19.8452 19.8868 19.8452 19.766 19.8991 19.6729C19.9522 19.5806 19.793 19.5162 19.793 19.5162C19.793 19.5162 19.6705 19.6868 19.6256 19.7578L19.6207 19.7668C19.5816 19.8321 19.4738 19.9366 19.4085 19.9651ZM19.6265 19.2574C19.695 19.241 19.8542 19.1994 19.8861 19.1153C19.9252 19.01 19.9122 19.0631 19.953 18.9447C19.993 18.8263 19.8461 18.9839 19.8461 18.9839L19.6738 19.0908L19.6265 19.1937L19.5946 19.2623C19.5954 19.2623 19.606 19.2615 19.6265 19.2574Z" fill="#0EE3E0"/>
</g>
<defs>
<clipPath id="clip0_478_854">
<rect width="40" height="40" fill="white"/>
</clipPath>
</defs>
</svg>
