<svg width="40" height="42" viewBox="0 0 40 42" fill="none" xmlns="http://www.w3.org/2000/svg">
<path fill-rule="evenodd" clip-rule="evenodd" d="M20 8C26.6274 8 32 13.3726 32 20C32 24.4417 29.5868 28.3197 26 30.3946L26 38L24 40H22C22 41.1046 21.1046 42 20 42C18.8954 42 18 41.1046 18 40H16L14 38L14 30.3946C10.4132 28.3197 8 24.4417 8 20C8 13.3726 13.3726 8 20 8ZM22.0001 31.8341C21.3496 31.9432 20.6815 32 20 32C19.3185 32 18.6504 31.9432 17.9999 31.8341L18 36H22L22.0001 31.8341ZM9.03984 28.8388L11.1612 30.9602L6.91852 35.2028L4.7972 33.0815L9.03984 28.8388ZM30.9602 28.8388L35.2028 33.0815L33.0815 35.2028L28.8388 30.9602L30.9602 28.8388ZM40 18.5V21.5H34V18.5H40ZM6 18.5V21.5H0V18.5H6ZM33.0815 4.7972L35.2028 6.91852L30.9602 11.1612L28.8388 9.03984L33.0815 4.7972ZM6.91852 4.7972L11.1612 9.03984L9.03984 11.1612L4.7972 6.91852L6.91852 4.7972ZM21.5 0V6H18.5V0H21.5Z" fill="black"/>
</svg>
