<svg width="36" height="36" viewBox="0 0 36 36" fill="none" xmlns="http://www.w3.org/2000/svg">
<path d="M10.125 20.25H7.875V25.875H10.125V20.25Z" fill="#231F20"/>
<path d="M29.25 26.4375C29.25 26.7486 28.9986 27 28.6875 27H25.3125C25.0014 27 24.75 26.7486 24.75 26.4375V23.625H11.25V26.4375C11.25 26.7486 10.9986 27 10.6875 27H7.3125C7.00144 27 6.75 26.7486 6.75 26.4375V23.625H0V33.75C0 34.9937 1.00631 36 2.25 36H33.75C34.9937 36 36 34.9937 36 33.75V23.625H29.25V26.4375Z" fill="#231F20"/>
<path d="M28.125 20.25H25.875V25.875H28.125V20.25Z" fill="#231F20"/>
<path d="M33.75 7.3125H27V2.25C27 1.00631 25.9937 0 24.75 0H11.25C10.0063 0 9 1.00631 9 2.25V7.3125H2.25C1.00631 7.3125 0 8.31881 0 9.5625V22.5H6.75V19.6875C6.75 19.3764 7.00144 19.125 7.3125 19.125H10.6875C10.9986 19.125 11.25 19.3764 11.25 19.6875V22.5H24.75V19.6875C24.75 19.3764 25.0014 19.125 25.3125 19.125H28.6875C28.9986 19.125 29.25 19.3764 29.25 19.6875V22.5H36V9.5625C36 8.31881 34.9937 7.3125 33.75 7.3125ZM23.625 7.3125H12.375V3.375H23.625V7.3125Z" fill="#231F20"/>
</svg>
