<svg width="38" height="38" viewBox="0 0 38 38" fill="none" xmlns="http://www.w3.org/2000/svg">
<path d="M36.8054 23.644L34.0461 23.2427C33.8733 23.2295 33.7243 23.1208 33.6581 22.9606L32.7635 20.8019C32.6966 20.6424 32.7245 20.4596 32.8377 20.3285L34.4886 18.1108C34.7508 17.8035 34.7336 17.3453 34.4474 17.0593L33.141 15.7535C32.8556 15.4675 32.3967 15.4489 32.0902 15.7125L29.8719 17.3626C29.7414 17.4752 29.5573 17.5043 29.3984 17.4381L27.239 16.5429C27.0794 16.4774 26.9702 16.3257 26.9563 16.1549L26.5563 13.3962C26.5245 12.9924 26.1882 12.6812 25.7843 12.6812H23.9368C23.5323 12.6812 23.1958 12.9924 23.1647 13.3962L22.7634 16.1549C22.7508 16.3271 22.6416 16.4774 22.482 16.5429L20.322 17.4381C20.1624 17.5043 19.9796 17.4752 19.8479 17.3626L17.6309 15.7125C17.3243 15.4496 16.8661 15.4674 16.5794 15.7535L15.2736 17.0593C14.9876 17.3453 14.9703 17.8036 15.2325 18.1108L16.8827 20.3291C16.9946 20.4596 17.0244 20.6429 16.9575 20.8019L16.0629 22.9606C15.998 23.1209 15.8471 23.2295 15.6756 23.2434L12.915 23.644C12.5124 23.6759 12.2012 24.0122 12.2012 24.4168V26.2636C12.2012 26.6675 12.5124 27.0053 12.915 27.0357L15.6756 27.4363C15.8471 27.4503 15.998 27.5595 16.0629 27.7191L16.9575 29.8778C17.0244 30.0381 16.9947 30.2214 16.8827 30.3519L15.2325 32.5702C14.9703 32.8775 14.9875 33.3343 15.2736 33.6218L16.5794 34.9276C16.8661 35.2136 17.3243 35.2308 17.6309 34.9679L19.8479 33.3171C19.9796 33.2059 20.1624 33.1761 20.322 33.243L22.482 34.1369C22.6416 34.2039 22.7508 34.3535 22.7642 34.5263L23.1648 37.2849C23.1966 37.6881 23.5323 38.0001 23.9368 38.0001H25.7844C26.1889 38.0001 26.5246 37.6881 26.5564 37.2849L26.9563 34.5263C26.9703 34.3535 27.0795 34.2039 27.2391 34.1369L29.3991 33.243C29.5581 33.1761 29.7421 33.2059 29.8725 33.3171L32.0903 34.9679C32.3968 35.2308 32.8557 35.2136 33.1411 34.9276L34.4475 33.6218C34.7343 33.3343 34.7508 32.8775 34.4886 32.5702L32.8378 30.3519C32.7265 30.2214 32.6968 30.0381 32.7636 29.8778L33.6582 27.7191C33.7244 27.5595 33.8734 27.4503 34.0462 27.4363L36.8055 27.0357C37.2088 27.0053 37.52 26.6675 37.52 26.2636V24.4168C37.5199 24.0122 37.2087 23.6758 36.8054 23.644ZM27.8958 28.3759C27.0846 29.1858 26.0073 29.6322 24.8604 29.6322C23.7142 29.6322 22.6355 29.1858 21.825 28.3759C21.0146 27.5641 20.5675 26.4868 20.5675 25.3399C20.5675 24.1936 21.0145 23.1156 21.825 22.3051C22.6355 21.4932 23.7142 21.0483 24.8604 21.0483C26.0074 21.0483 27.0847 21.4932 27.8958 22.3051C28.7063 23.1155 29.1526 24.1936 29.1526 25.3399C29.1526 26.4868 28.7063 27.5641 27.8958 28.3759Z" fill="black"/>
<path d="M13.6649 18.7147C13.9642 18.6074 14.1291 18.2882 14.0451 17.9823L13.6073 15.8408C13.5723 15.7096 13.6127 15.57 13.7127 15.4786L15.0681 14.245C15.1674 14.1543 15.3118 14.1272 15.437 14.1748L17.5122 14.8031C17.8083 14.9151 18.142 14.7813 18.2771 14.4939L18.8929 13.1835C19.0292 12.8955 18.9201 12.5538 18.6446 12.3975L16.8382 11.1996C16.7209 11.1321 16.65 11.0043 16.6574 10.8692L16.7435 9.03895C16.7507 8.90321 16.8315 8.78335 16.9541 8.72768L18.8844 7.69797C19.1737 7.56883 19.3134 7.23648 19.2062 6.93983L18.7161 5.57636C18.6082 5.27771 18.289 5.1122 17.9831 5.19629L15.841 5.63262C15.7098 5.66973 15.5714 5.62869 15.4794 5.52797L14.2464 4.17334C14.1543 4.07262 14.1266 3.93101 14.1755 3.80388L14.804 1.72991C14.9158 1.43259 14.7822 1.0995 14.4941 0.965015L13.1843 0.348556C12.8969 0.213404 12.5539 0.321392 12.397 0.597485L11.1998 2.40396C11.1328 2.52123 11.0051 2.59196 10.8699 2.58543L9.03971 2.49867C8.90464 2.49273 8.78277 2.40923 8.72785 2.28737L7.69948 0.357833C7.569 0.0685294 7.23791 -0.0712984 6.93992 0.0360216L5.5772 0.526681C5.27854 0.634001 5.11303 0.952547 5.19779 1.2584L5.63479 3.40124C5.67056 3.53097 5.63019 3.6714 5.52955 3.76209L4.17402 4.99634C4.07338 5.08704 3.93103 5.11487 3.80389 5.06722L1.72993 4.43815C1.43395 4.32563 1.10085 4.46071 0.965107 4.74801L0.349242 6.05789C0.214164 6.34527 0.322078 6.6883 0.597577 6.84453L2.40398 8.04242C2.52184 8.10937 2.59205 8.2365 2.58478 8.37158L2.49869 10.2018C2.49342 10.3382 2.41059 10.4574 2.28813 10.513L0.357851 11.5426C0.0683987 11.6725 -0.0712806 12.0042 0.0360394 12.3009L0.526698 13.6643C0.633944 13.9629 0.953158 14.1284 1.25842 14.0451L3.40192 13.6067C3.53173 13.571 3.67208 13.612 3.76278 13.7126L4.99569 15.0675C5.08773 15.1681 5.1143 15.3112 5.0665 15.4376L4.43816 17.5116C4.32691 17.8082 4.46073 18.1413 4.74803 18.2764L6.05784 18.8922C6.34588 19.028 6.68817 18.9187 6.84515 18.6439L8.0417 16.8368C8.10924 16.7203 8.23637 16.6487 8.37212 16.6566L10.2024 16.7427C10.3382 16.7494 10.4587 16.8301 10.515 16.9539L11.5427 18.8828C11.6738 19.1722 12.0042 19.3133 12.3021 19.2059L13.6649 18.7147ZM10.7614 12.7876C9.91572 13.0915 9.00134 13.0491 8.18746 12.6664C7.37366 12.2836 6.75913 11.6069 6.45387 10.7606C6.14994 9.91436 6.19232 9.00058 6.57514 8.18745C6.95781 7.37297 7.6352 6.75844 8.48085 6.45392C9.32709 6.14926 10.2409 6.19163 11.054 6.57572C11.8671 6.95712 12.483 7.63392 12.7882 8.48016C13.0922 9.32648 13.0491 10.2396 12.6671 11.0535C12.283 11.8665 11.6069 12.4823 10.7614 12.7876Z" fill="black"/>
</svg>
