<svg width="48" height="38" viewBox="0 0 48 38" fill="none" xmlns="http://www.w3.org/2000/svg">
<path d="M23.9408 8.17763C23.2471 8.51353 22.5597 8.979 21.9221 9.61735C18.7261 12.814 15.8208 15.7193 15.8208 15.7193L15.822 15.7212C15.8046 15.7387 15.7872 15.7529 15.7698 15.7709C14.9425 16.5988 14.9097 17.9186 15.6737 18.7846C15.7039 18.8194 15.7363 18.8536 15.7698 18.8864C16.6286 19.7465 18.0231 19.7485 18.8853 18.8864L22.2412 15.5304C22.8202 15.7426 23.3895 15.8663 23.9357 15.9282C24.6798 16.0107 25.3787 15.9798 26.0002 15.8921C27.5154 15.6774 27.3568 15.74 28.2356 15.4511C29.1124 15.1635 30.0977 14.5742 30.0977 14.5742L30.6941 15.17C30.7598 15.2338 32.2803 16.7567 33.0558 17.5311C33.1932 17.669 33.3098 17.7825 33.3879 17.8638C33.4775 17.9573 33.5775 18.0249 33.6393 18.1152L37.5092 21.9851C38.6246 20.7336 39.8987 18.8696 39.7413 16.7297L30.0718 7.06144C30.0718 7.06144 26.7248 6.82228 23.9408 8.17763Z" fill="black"/>
<path d="M24.4798 31.9258C23.6235 31.0682 22.2335 31.0682 21.3766 31.9258L20.7397 32.5627C21.5946 31.7066 21.5939 30.3197 20.7377 29.4628C19.8808 28.6072 18.4927 28.6072 17.6358 29.4634C18.4927 28.6072 18.4927 27.2191 17.6358 26.3615C16.7796 25.5039 15.3908 25.5053 14.5339 26.3615C15.3908 25.5053 15.3908 24.1165 14.5339 23.2589C13.6776 22.4027 12.2888 22.4027 11.4319 23.2602L9.51375 25.1777C8.65687 26.0352 8.65687 27.4227 9.51375 28.2802C10.37 29.1365 11.7582 29.1365 12.615 28.2802C11.7581 29.1365 11.7581 30.5252 12.615 31.3821C13.4725 32.2383 14.8607 32.2383 15.7176 31.3821C14.8607 32.2383 14.8607 33.6266 15.7176 34.4841C16.5744 35.3403 17.9626 35.3403 18.8196 34.4841L19.4573 33.8458C18.6023 34.7033 18.6029 36.0902 19.4591 36.9471C20.316 37.8032 21.7042 37.8032 22.5611 36.9471L24.4799 35.0282C25.336 34.1702 25.336 32.782 24.4798 31.9258Z" fill="black"/>
<path d="M47.624 11.6682L36.3324 0.375258C35.8307 -0.125086 35.0197 -0.125086 34.5194 0.375258L30.8977 3.99682C30.3974 4.49716 30.3974 5.30829 30.8977 5.80929L42.1907 17.1016C42.6903 17.6031 43.5028 17.6031 44.0025 17.1016L47.624 13.4793C48.1257 12.9803 48.1257 12.1692 47.624 11.6682ZM44.4054 14.1724C43.8663 14.7102 42.9947 14.7102 42.4576 14.1724C41.9199 13.634 41.9199 12.7624 42.4576 12.2246C42.9947 11.6869 43.8663 11.6869 44.4054 12.2246C44.9432 12.7624 44.9425 13.634 44.4054 14.1724Z" fill="black"/>
<path d="M17.1016 4.31664L13.4806 0.695082C12.9803 0.194738 12.1685 0.194738 11.6682 0.695082L0.375258 11.9879C-0.125086 12.487 -0.125086 13.2994 0.375258 13.7991L3.99691 17.422C4.4966 17.9217 5.3096 17.9217 5.80863 17.422L17.1016 6.12902C17.6026 5.62868 17.6026 4.81755 17.1016 4.31664ZM5.54229 14.4922C5.00454 15.0293 4.13229 15.0293 3.59445 14.4922C3.05679 13.9539 3.05679 13.0821 3.59445 12.5443C4.1322 12.0067 5.00454 12.0067 5.54229 12.5443C6.08004 13.0821 6.08004 13.9538 5.54229 14.4922Z" fill="black"/>
<path d="M37.2682 24.2803L36.568 23.5788L29.7703 16.7811L29.3125 16.9842L28.8142 17.1641L28.7782 17.175C28.6904 17.2028 27.8703 17.4536 26.2533 17.6824C25.3983 17.8018 24.5512 17.8166 23.731 17.7231C23.4067 17.687 23.0843 17.634 22.7658 17.5645L20.1636 20.1655C18.6 21.729 16.0539 21.729 14.4904 20.1655C14.4355 20.1101 14.3827 20.0539 14.3337 19.9985L14.3169 19.9798C13.3298 18.8605 13.0791 17.3285 13.5433 15.999L14.5439 14.4419L14.542 14.4401L20.6434 8.33938C20.8915 8.09179 21.1521 7.86098 21.4228 7.64301C19.5215 7.2697 17.9263 7.37995 17.9263 7.37995L8.25862 17.0493C8.12841 18.8294 9.35091 20.7805 10.2206 21.9198C11.7855 20.4233 14.2743 20.4427 15.812 21.9811C16.3845 22.553 16.745 23.2577 16.897 23.9966C17.6372 24.15 18.3413 24.5099 18.9139 25.0824C19.4864 25.6556 19.8469 26.3603 19.999 27.0998C20.7385 27.2519 21.4439 27.6117 22.0159 28.1843C22.3982 28.5666 22.6864 29.0077 22.8804 29.4796C23.9211 29.4668 24.9656 29.8561 25.7574 30.6473C27.3184 32.2069 27.3177 34.7473 25.7574 36.3063L25.1191 36.9459L25.4389 37.2658C26.2965 38.1233 27.6846 38.1233 28.5415 37.2658C29.3984 36.4094 29.3984 35.0207 28.5415 34.1638L29.1798 34.8041C30.0373 35.6603 31.4248 35.6603 32.2817 34.8041C33.1386 33.9465 33.1392 32.5584 32.2817 31.7009C33.1392 32.5584 34.5267 32.5584 35.3836 31.7009C36.2399 30.8453 36.2418 29.4565 35.3836 28.5989C36.2418 29.4565 37.6293 29.4565 38.4856 28.5989C39.3431 27.7427 39.3431 26.3538 38.4856 25.4976L37.2682 24.2803Z" fill="black"/>
</svg>
