<svg width="36" height="36" viewBox="0 0 36 36" fill="none" xmlns="http://www.w3.org/2000/svg">
<path d="M30.6274 5.3228C33.9419 8.6373 36 13.1552 36 18.0249C36 22.946 33.9419 27.3643 30.6274 30.6772C27.3129 33.9901 22.8448 36 17.9751 36C13.054 36 8.63569 33.9917 5.3228 30.6772C2.00991 27.3627 0 22.9444 0 18.0249C0 13.1552 2.0083 8.63569 5.3228 5.3228C8.6373 2.00991 13.0556 0 17.9751 0C22.8448 0 27.3145 2.0083 30.6274 5.3228ZM20.0332 28.1676H20.1344C20.2854 28.1676 20.4365 28.2174 20.5361 28.3685C20.6373 28.4697 20.7369 28.5693 20.9377 28.5693C20.9875 28.5693 21.039 28.5195 21.039 28.4183C21.039 28.2174 21.0888 28.0166 21.0888 27.9668C21.1386 27.8158 21.2398 27.8158 21.3394 27.8158C21.3892 27.8158 21.3892 27.8158 21.3892 27.7146L21.288 27.6133C21.2382 27.6133 21.1868 27.6631 21.1868 27.7146C21.137 27.7644 21.0856 27.8158 21.0357 27.7146L20.7337 27.9154L20.3818 27.8142L19.7794 26.9096L19.9802 25.6034C19.9802 25.5536 19.9304 25.4524 19.7794 25.4026C19.6283 25.3528 19.6283 25.2516 19.6781 25.2018C19.4773 25.1005 19.2267 25.0009 18.9246 25.0009C18.8748 25.0009 18.7238 25.0507 18.4732 25.1022C18.2225 25.1022 18.0715 25.1022 18.0715 25.0009C18.0715 24.8499 18.2225 24.5495 18.3221 24.1976C18.3719 24.0466 18.4234 23.796 18.4732 23.6947C18.4732 23.5935 18.523 23.4939 18.523 23.4939L18.7736 22.8914L18.7238 22.7902L18.3719 22.7404C18.2707 22.7404 17.9205 22.9412 17.6682 23.1421C17.4176 23.4441 17.2168 23.6947 17.2168 23.8956L16.2126 24.0964C16.0118 24.0964 15.811 24.0466 15.6599 23.8458C15.6101 23.5951 15.4591 23.2931 15.2583 22.9926C15.0574 22.742 15.0076 22.4898 15.0076 22.2391C15.0076 21.9371 15.0574 21.5354 15.1587 21.2848C15.2599 20.9827 15.2599 20.6325 15.0574 20.3304C15.1072 20.3304 15.2583 20.2292 15.1587 20.1296L15.4093 19.8276L15.4591 19.7777L15.5089 19.8276C15.7097 19.6765 16.0616 19.6267 16.362 19.6765C16.7139 19.7263 16.9147 19.5753 17.0143 19.3247L17.3662 19.6765C17.4674 19.7263 17.6682 19.3745 17.6682 19.2749L17.5172 19.1737L18.4217 18.9728L18.4715 19.074H18.8732L19.3761 19.3761C19.4259 19.3761 19.4773 19.3263 19.5271 19.2749C19.6283 19.1737 19.6781 19.1737 19.7279 19.2251L20.1794 19.7279C20.1296 19.8292 20.1296 19.9288 20.1296 20.03C20.1794 20.0798 20.2308 20.1312 20.2308 20.181C20.2308 20.3818 20.6823 21.2864 20.9345 21.2864C21.0856 21.2864 21.1354 21.1852 21.0856 20.9843V20.5827C21.0856 20.332 21.0357 20.03 20.9345 19.7295C20.7835 19.4789 20.6839 19.1271 20.5827 18.825V18.7238C20.5827 18.5728 20.6839 18.4217 20.8847 18.3221C21.0357 18.2209 21.1354 18.1213 21.1354 18.1213C21.2864 18.0201 21.4374 17.8707 21.6382 17.7694C21.7893 17.6682 21.9403 17.4176 22.0399 17.2666L22.1909 16.9147V16.7139H22.3419C22.3419 16.7139 22.4432 16.6641 22.4432 16.5629C22.4432 16.5629 22.3934 16.5131 22.3419 16.5131C22.2921 16.4632 22.1411 16.362 22.0399 16.2624L22.1411 16.1612C22.2921 16.0102 22.3419 15.6583 22.2423 15.5089L22.644 15.3081C22.5428 15.5089 22.8448 15.5587 22.946 15.5089L23.1469 15.0574C23.0457 14.8068 22.9958 15.0574 23.1469 14.7554C23.2979 14.7056 23.4489 14.6542 23.5983 14.5546C23.7494 14.5048 23.849 14.4533 24 14.4533C24.0498 14.4533 24.1012 14.5031 24.1012 14.5031C24.2024 14.5031 24.2522 14.4533 24.2522 14.4533C24.2522 14.3023 24.2024 14.2027 24.151 14.2027L24.4017 13.65C24.6025 13.65 24.8033 13.5488 24.9045 13.348L25.3062 13.2982C25.4074 13.2982 25.4572 13.2484 25.4572 13.1471V13.0459L26.2107 12.8451L26.312 12.5945L26.1111 12.2924C26.1111 12.2924 26.1609 12.2426 26.1609 12.1912C26.1609 12.1398 26.1111 12.09 26.0597 12.0402C26.0099 12.0402 25.9585 11.9904 25.9087 11.9904C25.8589 11.9406 25.8075 11.8891 25.7577 11.8891H26.1593C26.1593 11.8891 26.3602 11.8393 26.3602 11.6883C26.3602 11.4875 26.2589 11.4377 26.0581 11.4377C25.5054 11.4377 24.6523 11.6385 24.3502 12.241L24.0482 12.392L24.4499 11.9904L24.4997 11.8891C24.4997 11.8393 24.4499 11.7879 24.3486 11.7381H24.1976C24.7005 11.7381 25.0009 11.5871 25.2018 11.4361C25.3528 11.285 25.5038 11.134 25.8541 11.0344C26.2059 11.0842 26.5578 11.0842 26.908 11.0842C27.2101 11.0344 27.5105 11.0344 27.8624 11.0344C28.0134 10.9332 28.2142 10.7324 28.3138 10.5315L28.8167 10.4817C28.9179 10.5829 29.2682 10.3307 29.2682 10.1797C29.2682 10.0287 29.2184 9.97885 29.0673 9.92904C28.9163 9.87924 28.7653 9.77802 28.7653 9.62699V9.47597C28.8151 9.42616 28.7653 9.37475 28.7155 9.37475C28.5147 9.37475 28.0118 9.62539 27.8624 9.7266C27.7611 9.82782 27.7113 9.6768 27.7113 9.57558L27.7611 9.62539L27.962 9.52417L28.4649 9.32334L28.5147 9.27353C28.5147 9.0727 28.2126 9.02289 28.113 9.02289C28.0632 9.02289 27.962 9.0727 27.8624 9.12411C27.7611 9.12411 27.6615 9.12411 27.6615 9.02289L27.7113 8.92168C27.3595 8.67104 27.059 8.16816 27.059 8.01714V7.81631C27.1088 7.7665 27.059 7.7665 26.9578 7.7665H26.8068C26.757 7.81631 26.7056 7.7665 26.7056 7.66528C26.7056 7.56406 26.5048 7.01299 26.2541 7.01299L26.1031 7.16401C26.1031 7.26523 26.0533 7.31503 25.9521 7.36484C25.8509 7.41465 25.801 7.46606 25.801 7.51586H25.7512L25.2484 7.81791C25.2484 7.7167 25.1986 7.7167 25.1471 7.76811C25.0973 7.76811 25.0973 7.81791 24.9961 7.81791H24.8949C25.1455 7.81791 25.0957 7.46606 24.8949 7.46606L24.4932 7.51586C24.392 7.51586 24.392 7.51587 24.4932 7.41465C24.543 7.31343 24.6443 7.21382 24.543 7.1126C24.543 7.01138 24.4932 7.01138 24.4418 7.06279L24.543 6.91177C24.6443 6.86196 24.4932 6.66113 24.392 6.55991L23.9406 6.51011L23.6385 6.20806C23.5887 6.25787 23.5373 6.20806 23.4377 6.15825C23.3879 6.10845 23.2867 6.00723 23.2368 6.00723L22.885 6.15825L21.9805 5.95742C21.8792 5.95742 21.7298 6.00723 21.7298 6.15825C21.7298 6.20806 21.7298 6.25947 21.7796 6.25947C21.8808 6.30928 21.8808 6.36069 21.8808 6.4105C21.8808 6.4603 21.9306 6.66113 21.9821 6.91337C21.9821 7.16401 21.9821 7.26523 21.831 7.21542L21.6302 7.51747C21.6302 7.61869 21.7314 7.6685 21.7812 7.6685C21.9323 7.76971 22.0833 7.91913 22.1829 8.07016C22.2841 8.17138 22.2841 8.32079 22.2327 8.47182L21.2784 9.22533V9.27514C21.2784 9.42616 21.2784 9.52577 21.3282 9.62699C21.4294 9.72821 21.4294 9.87763 21.529 10.0287C21.7796 10.1299 21.7796 10.2295 21.5788 10.3307C21.4776 10.3307 21.378 10.3805 21.2767 10.4319L21.1755 10.5331C21.1755 10.5829 21.1257 10.5829 21.0743 10.5829H20.8237C20.8237 10.5829 20.8237 10.5331 20.8735 10.5331C20.8735 10.5331 20.9233 10.4833 20.9233 10.4319L20.4718 10.1813L20.271 9.82943C20.3208 9.6784 20.3208 9.57879 20.271 9.52738C20.2212 9.47597 20.2212 9.37636 20.2212 9.27674C20.2212 9.17713 20.12 8.92489 19.9191 8.92489C19.6685 8.92489 19.4677 8.9747 19.2154 9.02611C19.3166 8.9763 19.1142 8.72406 19.0644 8.72406C18.8138 8.72406 18.5117 8.62284 18.1599 8.42201C17.808 8.22118 17.5574 8.11996 17.3565 8.11996C17.2055 8.11996 16.9051 8.16977 16.7042 8.27099C16.8055 8.22118 16.8055 8.16977 16.8553 8.02035L16.5532 7.51747L16.5034 7.46767C16.4022 7.46767 16.3026 7.51747 16.2014 7.61869C16.1001 7.6685 15.9507 7.61869 15.9507 7.41786C15.9507 7.36805 16.0005 7.31664 16.0005 7.31664C16.0503 7.26684 16.0503 7.26684 16.0005 7.21542C16.0005 7.0644 16.0503 6.91338 16.2014 6.76396C16.3026 6.66274 16.3524 6.46191 16.4022 6.31249C16.5034 6.26269 16.5034 6.21127 16.5034 6.16147C16.5034 6.06025 16.5532 6.06025 16.6046 6.06025C16.7059 6.06025 16.8553 6.01044 16.9565 5.95903C17.0577 5.85781 17.1573 5.80801 17.3083 5.80801L17.3581 5.65698C17.3581 5.60718 17.2071 5.55576 16.9067 5.50596C16.5548 5.45615 16.4038 5.45615 16.4038 5.35493L16.4536 5.30513C16.7557 5.40635 17.0063 5.45615 17.1573 5.45615C17.4594 5.50596 17.6088 5.40635 17.9108 5.25532C18.0121 5.20552 18.3125 5.1043 18.5631 4.95327C18.5631 4.90347 18.5133 4.90347 18.3623 4.85206H18.5631L18.915 4.65123V4.4504L18.8138 4.34918L19.3166 4.24796C19.2668 4.14674 19.3664 4.09693 19.4179 4.09693C19.5191 4.09693 19.6187 4.14674 19.7199 4.24796C19.8211 4.34918 19.8709 4.34918 19.9207 4.34918L20.3722 4.19815C20.3722 4.14835 20.422 4.14835 20.5232 4.14835C20.6244 4.09854 20.6743 4.04713 20.6244 3.99732L20.2726 3.64547C20.1714 3.64547 20.1216 3.49444 20.2228 3.49444C20.3738 3.49444 20.4734 3.44464 20.3738 3.29361C20.2726 3.24381 20.1232 3.14259 19.9722 3.09278C19.8211 2.99156 19.6701 2.94176 19.5207 2.94176C19.4195 2.94176 19.2186 2.99156 19.2186 3.14259C19.2186 3.24381 19.2684 3.24381 19.3199 3.24381C19.4211 3.24381 19.4709 3.29361 19.4709 3.34503C19.5721 3.39483 19.5207 3.44624 19.4211 3.44624H19.3199C19.2186 3.44624 19.0692 3.54746 18.968 3.74829C18.8668 3.89932 18.7174 4.05034 18.5663 4.10015C18.5165 4.10015 18.5165 4.10015 18.5165 4.05034C18.5663 4.00054 18.5165 4.00054 18.5165 3.94912C18.4667 3.89932 18.4153 3.8479 18.3655 3.8479C18.2643 3.7981 18.1647 3.7981 18.1647 3.74669C18.1647 3.64547 18.2659 3.59566 18.3655 3.44464C18.4153 3.29361 18.2643 3.24381 18.0137 3.24381C17.9124 3.24381 17.8128 3.29361 17.763 3.39483C17.7132 3.44464 17.6618 3.54586 17.612 3.64547L17.1091 3.09278L16.7075 3.04298C16.7075 2.94176 16.7573 2.84215 16.8087 2.74093C16.9099 2.5401 16.5066 2.28946 16.3572 2.13844C16.3074 2.13844 16.2062 2.08863 16.1066 2.08863C16.0568 2.08863 15.7547 2.33927 15.5539 2.44049C15.4527 2.49029 15.4029 2.54171 15.4029 2.59151C15.4029 2.69273 15.5041 2.69273 15.6535 2.69273H15.6037C15.5025 2.69273 15.4527 2.74254 15.4527 2.89356C15.4527 2.94337 15.8543 3.04458 15.9555 3.04458C16.0568 3.04458 16.1564 3.04458 16.1564 3.09439C16.2062 3.1442 16.2062 3.1442 16.3074 3.1442L16.4584 3.09439V3.19561L16.4086 3.29683L16.4584 3.44785L15.9555 3.69849L15.9057 3.74829C15.8559 3.74829 15.8045 3.74829 15.8045 3.7981C15.8045 3.8479 15.8045 3.94912 15.9057 4.04873C15.9555 4.14995 15.9057 4.19976 15.6551 4.19976L15.5041 4.09854C15.5041 3.99732 15.4029 3.89771 15.1522 3.79649C14.7008 3.64547 13.8974 3.59566 13.1937 3.59566C12.8419 3.54586 12.5912 3.54586 12.3904 3.54586L11.6369 3.79649L11.8377 4.19815C11.7879 4.19815 11.6867 4.24796 11.6867 4.24796C11.4859 4.09693 11.1838 3.79649 11.0842 3.79649L10.7324 3.74669C9.62699 3.79649 8.3224 4.85205 7.06761 6.10684C5.81283 7.36163 4.70746 8.76744 4.15477 9.62217H4.25599C4.35721 9.62217 4.40702 9.57237 4.55804 9.52095C4.65926 9.47115 4.70906 9.57076 4.70906 9.72178C4.70906 9.823 4.70906 9.87281 4.65926 9.97242C4.60945 10.072 4.70906 10.1234 4.90989 10.1234C4.9597 10.1234 5.01111 10.0736 5.01111 9.97242C5.06092 9.8712 5.06092 9.8712 5.06092 9.97242L5.16214 10.3243V10.3741C5.16214 10.4239 5.11233 10.4753 5.06092 10.5251C4.90989 10.5749 5.06092 10.7259 5.21194 10.7259H5.46258L5.5638 10.6761L5.6136 10.6263C5.6136 10.8272 5.81443 10.877 5.96546 10.877H6.01526C6.01526 10.877 5.96546 10.9782 5.91404 11.028C5.81283 11.028 5.81283 11.0778 5.91404 11.1292L6.41692 11.2304V11.2802L6.71897 11.9325C6.71897 12.0337 6.61775 12.2844 6.51814 12.2844C6.41853 12.2844 6.41692 12.2346 6.41692 12.1832C6.46673 12.1832 6.46673 12.1334 6.46673 12.0321C6.46673 11.9823 6.41692 11.9309 6.41692 11.8811C6.36712 11.8313 6.2659 11.8313 6.06507 11.8313C6.01526 11.8313 5.86424 11.8313 5.96385 11.9823L6.21449 12.535L6.3157 12.6362C6.01366 12.6362 5.96385 13.6404 5.96385 13.9424L6.01366 14.3441L6.06346 14.4951V14.5449L6.01366 14.9964L6.61615 16.0005H6.76717C6.76717 16.0503 6.76717 16.1018 6.71737 16.1516C6.66756 16.2014 6.66756 16.2528 6.66756 16.3524L6.86839 16.5034C6.86839 16.8055 6.96961 16.8553 7.22024 17.1059C7.22024 17.2569 7.42107 17.4578 7.72312 17.6586C8.07498 17.8096 8.27581 17.9092 8.37542 17.9606C8.57625 18.6643 8.9281 19.4163 9.42937 19.8693L9.47918 20.1714L9.37796 20.2726C9.27674 20.2726 9.27674 20.3224 9.32816 20.3738L9.72982 20.5746C9.83104 20.4734 9.88084 20.5746 9.98045 20.7257C10.0817 20.9265 10.1315 21.0277 10.1813 21.0775V21.2285L10.4319 21.5804L10.5331 21.6816L10.6344 21.431C10.5331 21.1803 10.1829 20.6277 9.88084 20.1762C9.72982 19.9256 9.57879 19.6733 9.42937 19.4725C9.32816 19.3215 9.27835 19.2218 9.27835 19.1704C9.27835 19.119 9.22854 18.5679 9.17713 18.4667C9.22694 18.5165 9.37796 18.5679 9.47918 18.6178C9.63021 18.6676 9.78123 18.719 9.88084 18.7688C9.93065 19.1704 10.0817 19.4725 10.3323 19.7231C10.5331 19.924 10.734 20.1746 10.885 20.4766C10.7838 20.5779 10.9862 20.5779 11.0858 20.5779C11.1356 20.6791 11.1356 20.7289 11.1356 20.9297C11.5871 21.3812 12.4916 22.4367 12.4916 22.8882V22.938L12.3904 23.2401C12.5912 23.6915 13.0427 24.0434 13.4958 24.1944H13.597C13.8476 24.3454 14.1995 24.4965 14.5513 24.6459C14.8534 24.8467 15.1538 24.9977 15.4559 25.0973L15.9588 24.7953C16.2094 24.8451 16.5114 25.0973 16.8633 25.3978C17.2152 25.6982 17.6666 26.0501 18.2691 26.1513C18.4699 26.0003 18.5712 26.0501 18.5712 26.2525V26.3537L19.1238 27.006L19.2251 27.3081C19.5271 27.5089 19.8774 27.811 20.0284 28.1612L20.0332 28.1676ZM13.5568 2.91284L13.507 2.81162C13.4058 2.76182 13.1552 2.6606 13.0556 2.6606C13.0058 2.6606 12.9045 2.7104 12.7037 2.76182C12.3519 2.96265 11.7992 3.11367 11.3975 3.3145C11.1967 3.41572 11.0457 3.46552 10.946 3.46552C11.1469 3.46552 11.3477 3.41572 11.5485 3.3145C11.6996 3.21328 11.9004 3.16348 12.1012 3.16348L12.2522 3.26469C12.3535 3.3145 12.4033 3.3145 12.5029 3.3145C12.5527 3.3145 12.6041 3.3145 12.7037 3.41572C12.8049 3.36591 12.9045 3.36591 13.0556 3.46552L13.2066 3.36431V3.16348L13.1568 3.06226L13.258 3.11206C13.3592 3.11206 13.4588 3.06226 13.56 2.91123L13.5568 2.91284ZM21.137 32.3336L21.1868 32.6357C21.1868 32.7369 21.137 32.7369 21.0856 32.8365C20.9345 32.9377 20.6839 33.0872 20.6839 33.3892C20.6839 33.439 20.7337 33.4904 20.7337 33.59C20.7835 33.6398 20.8349 33.6913 20.8349 33.7909C20.8349 33.8407 20.7851 33.8921 20.7851 33.9419C24.249 33.3394 27.3627 31.683 29.7727 29.122H29.7229C29.6216 29.1718 29.4722 29.1718 29.4208 29.122L29.2698 29.1718L29.0191 29.122H28.8681C28.7669 28.9709 28.6673 28.8713 28.5163 28.7701L28.4665 28.7203C28.4167 28.7203 28.3652 28.7203 28.3652 28.8215C28.3652 28.3701 28.0134 27.9684 27.6117 27.9684C27.6117 28.0182 27.5619 28.0182 27.5619 28.0182H27.4607L27.3595 27.9684H27.5105L27.6117 27.6664L27.3611 27.5153L27.3113 27.5651C27.1105 27.5153 26.9594 27.4141 26.8598 27.2133L26.7088 27.1635V27.2133L26.6076 27.2631C26.4067 27.3129 26.2557 27.3643 26.1561 27.4141C25.9553 27.3643 25.8043 27.2631 25.7545 27.2133L25.152 27.2631C25.152 27.0623 25.0507 26.8116 24.8001 26.8116C24.4981 26.8116 24.0964 26.8116 23.9968 27.1635C23.9968 27.2647 24.0466 27.4141 24.098 27.4655V27.6664L24.0482 27.7676L23.9984 27.8174H23.9486L23.7976 27.4655L23.9486 27.2647C23.8988 27.1635 23.8988 27.1137 23.8988 27.0141C23.8988 26.9144 23.849 26.863 23.849 26.7634L23.7992 26.7136H23.6481L23.3461 26.9144H23.1453L23.0955 27.0157C23.0457 27.0157 23.0457 27.0655 23.0457 27.1169C23.0457 27.1169 22.9958 27.1169 22.9958 27.1667L22.946 27.1169H22.7452C22.644 27.2181 22.5942 27.3675 22.5444 27.5185L22.6456 27.6198L22.395 27.721L22.3452 27.8222L22.1941 27.9234V27.9732H22.1443V28.2239H22.0945C22.0447 28.023 21.8937 27.8222 21.5916 27.6712H21.4406V27.7724C21.4406 27.8736 21.5418 27.9234 21.6415 27.9732C21.7427 28.0744 21.7925 28.1741 21.8423 28.2239C21.7925 28.1741 21.6913 28.2239 21.6913 28.2737V28.3749L21.9933 28.8263V29.6795L22.0945 29.8803C21.9933 30.1309 21.8937 30.3832 21.7427 30.5326V30.4828L21.6415 30.5326L21.5916 30.5824L21.5418 30.7832L21.5916 30.833V30.8829L21.4904 30.7816L21.4406 31.0837L21.19 31.1849C21.0888 31.2347 21.039 31.2861 21.0888 31.4355C21.0888 31.5368 21.039 31.5866 20.9377 31.6364L20.9875 31.7376L20.8863 31.8886C20.8863 31.9384 20.8863 31.9898 20.8365 31.9898V32.1907L20.8863 32.5425L20.9875 32.5923L21.0888 32.5425L21.137 32.3336Z" fill="black"/>
</svg>
