<svg width="44" height="37" viewBox="0 0 44 37" fill="none" xmlns="http://www.w3.org/2000/svg">
<path d="M4.07653 22.1693C6.32998 22.1693 8.15143 20.3443 8.15143 18.0927C8.15143 15.8419 6.32998 14.0161 4.07653 14.0161C1.82497 14.016 0 15.8419 0 18.0927C0 20.3443 1.82497 22.1693 4.07653 22.1693Z" fill="#181A1E"/>
<path d="M4.07179 23.5596C1.87987 23.5596 0.0908203 25.3367 0.0908203 27.5397V32.4886H4.80673L7.8496 26.273C7.32813 24.6872 5.83866 23.5596 4.07179 23.5596Z" fill="#181A1E"/>
<path d="M10.7452 14.3756C12.763 14.3756 14.3959 12.7419 14.3959 10.7233C14.3959 8.70803 12.763 7.07178 10.7452 7.07178C8.72828 7.07178 7.09375 8.70803 7.09375 10.7233C7.09375 12.7419 8.72837 14.3756 10.7452 14.3756Z" fill="#181A1E"/>
<path d="M7.16992 22.836V23.623H9.14846L12.7675 16.2475C12.1931 15.8429 11.5009 15.6201 10.7454 15.6201C10.235 15.6201 9.74512 15.7259 9.30899 15.918C9.58554 16.5888 9.74513 17.322 9.74513 18.0894C9.74513 20.0799 8.72341 21.8245 7.16992 22.836Z" fill="#181A1E"/>
<path d="M21.5695 7.30383C23.5873 7.30383 25.2209 5.67016 25.2209 3.65148C25.2209 1.63625 23.5873 0 21.5695 0C19.5525 0 17.918 1.63625 17.918 3.65148C17.918 5.67016 19.5525 7.30383 21.5695 7.30383Z" fill="#181A1E"/>
<path d="M21.5691 8.5459C19.5974 8.5459 17.9961 10.1455 17.9961 12.1198V13.6689H25.1421V12.1198C25.1421 10.1455 23.5434 8.5459 21.5691 8.5459Z" fill="#181A1E"/>
<path d="M15.1374 15.042L5.70898 34.2812V36.2939H38.2901V34.2812L28.8617 15.042H15.1374Z" fill="#181A1E"/>
<path d="M39.9235 22.1693C42.1753 22.1693 44.0001 20.3443 44.0001 18.0927C44.0001 15.8419 42.1753 14.0161 39.9235 14.0161C37.6702 14.0161 35.8486 15.8419 35.8486 18.0927C35.8486 20.3443 37.6702 22.1693 39.9235 22.1693Z" fill="#181A1E"/>
<path d="M39.9273 23.5596C38.1604 23.5596 36.671 24.6872 36.1494 26.273L39.1924 32.4887H43.9083V27.5398C43.9083 25.3367 42.1192 23.5596 39.9273 23.5596Z" fill="#181A1E"/>
<path d="M33.2541 14.3756C35.2712 14.3756 36.9057 12.7419 36.9057 10.7233C36.9057 8.70803 35.2712 7.07178 33.2541 7.07178C31.2363 7.07178 29.6035 8.70803 29.6035 10.7233C29.6035 12.7419 31.2363 14.3756 33.2541 14.3756Z" fill="#181A1E"/>
<path d="M33.2544 15.6201C32.4991 15.6201 31.8069 15.8429 31.2324 16.2475L34.8515 23.623H36.8301V22.836C35.2766 21.8245 34.2549 20.0799 34.2549 18.0894C34.2549 17.322 34.4145 16.5888 34.6911 15.918C34.2548 15.7258 33.7649 15.6201 33.2544 15.6201Z" fill="#181A1E"/>
</svg>
