<svg width="44" height="42" viewBox="0 0 44 42" fill="none" xmlns="http://www.w3.org/2000/svg">
<path d="M44 33.5859V41.9747H0V33.5859H35.709C35.7256 31.8111 35.4302 29.805 34.307 28.3244C33.3167 27.019 31.7918 26.2857 29.7713 26.1324C29.6063 26.4449 29.2885 26.6644 28.9103 26.6644H27.2183C26.6729 26.6644 26.2307 26.2227 26.2307 25.6768C26.2307 25.131 26.6729 24.6887 27.2183 24.6887H28.9103C29.352 24.6887 29.712 24.9841 29.8381 25.3836C32.0776 25.5534 33.7825 26.3861 34.9078 27.8704C36.1577 29.5197 36.4861 31.6866 36.4706 33.5843H44V33.5859ZM22 18.359C27.0698 18.359 31.1798 14.2495 31.1798 9.17922C31.1798 4.10891 27.0698 0 22 0C16.9297 0 12.8202 4.10944 12.8202 9.17975C12.8202 14.2501 16.9297 18.359 22 18.359ZM33.243 29.211C32.5861 28.3442 31.6167 27.8191 30.2921 27.6146C29.899 27.9121 29.4172 28.0803 28.9103 28.0803H27.2183C25.938 28.0803 24.8954 27.0383 24.8954 25.7569C24.8954 24.4767 25.9375 23.4341 27.2183 23.4341H28.9103C29.5817 23.4341 30.1986 23.7241 30.6264 24.2043C32.632 24.4777 34.2509 25.2607 35.4558 26.5357C35.4521 26.4881 35.4537 26.4395 35.4494 26.392L35.0269 24.2903C33.9961 20.9772 31.3106 18.3905 27.9388 17.4985C26.3792 18.9534 24.2951 19.8507 22 19.8507C19.7044 19.8507 17.6192 18.9529 16.0612 17.4985C11.7232 18.6453 8.51051 22.5923 8.51051 27.2845V32.3281H34.315C34.1798 31.0318 33.8167 29.9673 33.243 29.211Z" fill="#181A1E"/>
</svg>
