<svg width="44" height="44" viewBox="0 0 44 44" fill="none" xmlns="http://www.w3.org/2000/svg">
<path d="M30.8573 28.6736C32.0857 27.8669 33.699 28.7469 33.699 30.2136V32.5786C33.699 34.907 31.884 37.4003 29.7023 38.1336L23.854 40.077C22.8273 40.4253 21.159 40.4253 20.1507 40.077L14.3023 38.1336C12.1023 37.4003 10.3057 34.907 10.3057 32.5786V30.1953C10.3057 28.7469 11.919 27.867 13.129 28.6553L16.9057 31.1119C18.354 32.0836 20.1873 32.5603 22.0207 32.5603C23.854 32.5603 25.6873 32.0836 27.1357 31.1119L30.8573 28.6736Z" fill="#181A1E"/>
<path d="M36.6288 11.8409L25.6471 4.63592C23.6671 3.33425 20.4038 3.33425 18.4238 4.63592L7.38715 11.8409C3.84882 14.1326 3.84882 19.3209 7.38715 21.6309L10.3205 23.5376L18.4238 28.8176C20.4038 30.1193 23.6671 30.1193 25.6471 28.8176L33.6954 23.5376L36.2071 21.8876V27.4976C36.2071 28.2493 36.8304 28.8726 37.5821 28.8726C38.3338 28.8726 38.9571 28.2493 38.9571 27.4976V18.4776C39.6904 16.1126 38.9388 13.3626 36.6288 11.8409Z" fill="#181A1E"/>
</svg>
