<svg width="48" height="43" viewBox="0 0 48 43" fill="none" xmlns="http://www.w3.org/2000/svg">
<path d="M47.9986 23.7809L38.9153 20.4289V10.5793L34.4463 8.81916L34.4434 3.86252L24.0011 0L13.5562 3.82033L13.5558 8.81929L9.08682 10.5794V20.4283L0 23.7431V37.2815L10.4452 41.287L16.402 39.0027L24.0012 42.7439L31.5994 39.0032L37.5548 41.2868L48 37.2813L47.9986 23.7809ZM24.0012 2.045L31.4072 4.75037L24.0012 7.59032L16.595 4.75025L24.0012 2.045ZM3.03907 24.6824L10.4452 21.977L17.8512 24.6824L10.4451 27.5226L3.03907 24.6824ZM24.0012 39.8053L19.7573 37.7159L20.8904 37.2813L20.8899 23.7496L11.7235 20.3989V12.3745L13.5561 11.6527V17.3493L24.0012 21.355L34.4464 17.3493V11.6527L36.279 12.3745V20.3982L27.1104 23.7517L27.1097 37.2815L28.2441 37.7166L24.0012 39.8053ZM30.1489 24.6824L37.555 21.977L44.9611 24.6824L37.5549 27.5226L30.1489 24.6824Z" fill="black"/>
</svg>
